HIERARCHY
ROOT teapot3
{
	OFFSET 0.000000 0.000000 0.000000
	CHANNELS 6 Xposition Yposition Zposition Yrotation Xrotation Zrotation
	End Site
	{
		OFFSET 0.000000 0.000000 0.000000
	}
}
MOTION
Frames: 105
Frame Time: 0.008333334
2.429372 3.925200 2.787027 61.505440 2.713084 -1.139221 
2.432503 3.925120 2.788040 62.592670 2.819387 -1.123444 
2.435578 3.925133 2.788597 63.710130 2.860236 -1.055359 
2.438092 3.924876 2.789611 64.721690 2.913679 -1.019897 
2.440984 3.924531 2.790142 65.726010 2.843184 -1.023041 
2.443086 3.924849 2.790408 66.694070 2.946074 -0.976410 
2.445710 3.924967 2.789997 67.596920 2.957120 -0.974579 
2.448068 3.924712 2.789819 68.445950 3.013757 -1.036194 
2.450142 3.924727 2.789013 69.297450 3.063924 -1.042023 
2.452472 3.924631 2.788073 70.193020 3.112350 -0.988251 
2.454320 3.924658 2.787330 71.061290 3.148585 -0.998291 
2.455586 3.924430 2.786898 71.878590 3.227237 -1.028564 
2.457294 3.924446 2.785851 72.716460 3.227910 -1.023712 
2.459124 3.924491 2.785113 73.470760 3.176637 -1.055908 
2.460668 3.924162 2.784281 74.304120 3.188996 -1.028168 
2.462410 3.923994 2.783273 75.056210 3.233568 -1.025726 
2.463912 3.924435 2.781739 75.823140 3.307314 -1.062714 
2.465748 3.923886 2.780463 76.602450 3.351130 -0.947723 
2.467908 3.923975 2.779255 77.426530 3.299164 -0.972992 
2.469815 3.924048 2.777575 78.188140 3.364196 -1.009949 
2.471565 3.923967 2.775932 78.924640 3.397466 -0.984161 
2.473456 3.923398 2.773650 79.653300 3.475413 -0.898895 
2.475276 3.923396 2.771760 80.309220 3.517001 -0.924316 
2.476949 3.923562 2.769792 80.936950 3.453847 -0.958374 
2.478185 3.923300 2.767765 81.509570 3.562413 -0.917145 
2.479616 3.922934 2.766198 82.088690 3.571957 -0.833496 
2.480831 3.922970 2.764828 82.551200 3.589489 -0.845734 
2.481740 3.922810 2.763272 82.977940 3.604807 -0.853821 
2.482182 3.922364 2.761903 83.338560 3.631266 -0.833618 
2.482493 3.922721 2.760153 83.685390 3.630614 -0.847046 
2.482338 3.922791 2.758355 83.951480 3.601405 -0.830872 
2.481765 3.922278 2.756767 84.151560 3.700661 -0.814514 
2.481309 3.922622 2.754879 84.381690 3.632098 -0.834290 
2.480940 3.922633 2.753409 84.501830 3.629530 -0.877045 
2.480989 3.922965 2.752205 84.607280 3.553148 -0.910919 
2.480943 3.922739 2.751281 84.645120 3.543542 -0.884674 
2.480942 3.922636 2.751003 84.647930 3.536751 -0.890686 
2.480630 3.922351 2.751009 84.615150 3.607566 -0.852387 
2.480989 3.922592 2.751452 84.567330 3.565928 -0.876129 
2.480997 3.922219 2.752100 84.462520 3.650698 -0.796570 
2.481390 3.922212 2.753088 84.320160 3.704634 -0.786530 
2.481587 3.921887 2.754150 84.101330 3.785670 -0.791534 
2.481956 3.921892 2.755126 83.894790 3.791113 -0.726685 
2.482375 3.922170 2.755703 83.613670 3.755237 -0.695160 
2.482302 3.921956 2.756396 83.270660 3.851407 -0.688080 
2.481961 3.922214 2.757006 82.834630 3.914074 -0.683929 
2.481990 3.922539 2.757222 82.447130 3.860154 -0.716003 
2.481849 3.922782 2.757143 81.959300 3.860328 -0.769348 
2.481590 3.922414 2.757132 81.439170 3.821051 -0.767151 
2.481529 3.922400 2.756807 80.933040 3.753512 -0.808350 
2.481636 3.922038 2.755960 80.358110 3.729058 -0.760193 
2.481602 3.922005 2.755426 79.755970 3.689822 -0.788666 
2.481057 3.922075 2.754623 79.100340 3.665528 -0.794952 
2.480565 3.921916 2.753874 78.484350 3.601798 -0.814758 
2.479740 3.922068 2.752733 77.802880 3.505735 -0.853760 
2.478570 3.922060 2.751874 77.124000 3.449759 -0.870300 
2.476797 3.921928 2.751022 76.433080 3.447598 -0.852387 
2.475065 3.922160 2.750047 75.682840 3.469691 -0.962860 
2.473102 3.921965 2.749292 74.889420 3.406663 -0.943329 
2.470757 3.922076 2.748115 74.093540 3.400560 -1.000031 
2.469123 3.922019 2.747676 73.212590 3.346625 -0.961182 
2.467034 3.922406 2.747098 72.402850 3.313781 -0.971130 
2.465107 3.922388 2.746584 71.542240 3.273604 -1.005951 
2.463101 3.922474 2.745369 70.668860 3.262988 -0.971588 
2.460479 3.922483 2.744026 69.781680 3.192555 -0.986115 
2.457994 3.922429 2.742841 68.839250 3.143324 -0.977661 
2.454681 3.922372 2.740424 67.852310 3.100226 -0.968353 
2.451418 3.922353 2.738457 66.834630 2.984080 -1.015411 
2.448294 3.922212 2.736347 65.749750 2.950526 -1.031677 
2.444589 3.922143 2.734306 64.643490 2.952021 -0.999970 
2.440827 3.922457 2.732598 63.489400 2.880048 -1.032471 
2.436996 3.922615 2.730679 62.277030 2.804597 -1.067810 
2.433691 3.922722 2.728722 61.173530 2.736649 -1.058777 
2.429934 3.922309 2.727247 59.926050 2.678337 -1.057831 
2.426766 3.922295 2.725497 58.733550 2.580987 -1.063690 
2.424163 3.922381 2.723746 57.544280 2.552808 -1.022095 
2.421246 3.922131 2.722376 56.304130 2.488191 -1.059784 
2.418852 3.922303 2.720689 55.088710 2.407242 -1.035187 
2.416643 3.922336 2.719145 53.795540 2.351812 -1.058289 
2.413949 3.922570 2.717458 52.466510 2.374469 -1.083313 
2.411866 3.922617 2.715763 51.135070 2.272165 -1.058990 
2.409803 3.922874 2.714160 49.764880 2.224557 -1.103485 
2.407234 3.922775 2.712557 48.373440 2.130822 -1.088806 
2.405655 3.923018 2.711316 46.977040 2.010655 -1.142212 
2.404386 3.922558 2.710207 45.631450 1.896567 -1.111328 
2.402585 3.922486 2.709513 44.229940 1.925325 -1.058075 
2.401804 3.922622 2.709029 42.922100 1.744258 -1.051880 
2.400433 3.922255 2.708279 41.482030 1.759647 -1.000549 
2.399373 3.922413 2.707649 40.161290 1.795841 -1.003479 
2.398746 3.922341 2.707810 38.808060 1.654701 -1.011444 
2.398262 3.922459 2.708158 37.458600 1.597127 -0.929108 
2.397894 3.922931 2.709070 36.087340 1.502807 -0.954132 
2.398208 3.922985 2.710321 34.803130 1.495239 -0.880768 
2.398118 3.922843 2.712260 33.495030 1.425974 -0.852203 
2.398589 3.923077 2.713911 32.296560 1.338144 -0.791077 
2.399603 3.923321 2.715114 31.026680 1.320618 -0.832489 
2.400876 3.923067 2.717264 29.858790 1.230004 -0.785675 
2.401086 3.923085 2.718516 28.591420 1.175926 -0.755554 
2.402412 3.923367 2.719680 27.421720 1.094243 -0.793366 
2.403251 3.923432 2.720540 26.179320 1.022289 -0.753143 
2.403597 3.923235 2.721540 24.989070 1.011968 -0.694885 
2.404343 3.923499 2.722482 23.836800 0.953352 -0.625641 
2.405303 3.923420 2.722847 22.770120 0.945797 -0.624420 
2.405983 3.922476 2.724030 21.684390 0.966247 -0.606293 
2.406837 3.923080 2.724581 20.745140 0.860334 -0.586884 
